<svg width="66" height="66" viewBox="0 0 66 66" fill="none" xmlns="http://www.w3.org/2000/svg">
<path d="M37.1929 56.2851L10.4643 29.5565L29.5562 10.4646L56.2848 37.1932L37.1929 56.2851Z" fill="white"/>
<path d="M10.4643 10.4646C15.7364 5.19252 24.2841 5.19252 29.5562 10.4646C34.8283 15.7367 34.8283 24.2844 29.5562 29.5565C24.2841 34.8286 15.7364 34.8286 10.4643 29.5565C5.19224 24.2844 5.19224 15.7367 10.4643 10.4646Z" fill="white"/>
<path d="M37.1929 37.1932C42.465 31.9212 51.0128 31.9212 56.2848 37.1932C61.5569 42.4653 61.5569 51.013 56.2848 56.2851C51.0128 61.5572 42.465 61.5572 37.1929 56.2851C31.9209 51.013 31.9209 42.4653 37.1929 37.1932Z" fill="white"/>
<path d="M23.5874 42.6795C27.083 40.1974 30.5721 37.2622 33.9171 33.9173C37.2619 30.5725 40.1971 27.0831 42.6792 23.5876L56.2848 37.1932C61.5569 42.4653 61.5569 51.013 56.2848 56.2851C51.0128 61.5572 42.465 61.5572 37.193 56.2851L23.5874 42.6795Z" fill="#E6D46D"/>
<mask id="path-3-inside-1_997_2" fill="white">
<path d="M47.6926 28.6006C44.1971 31.0827 40.7085 34.0186 37.3636 37.3635C34.0188 40.7083 31.0829 44.197 28.6007 47.6925L10.4646 29.5563C5.19248 24.2842 5.19248 15.7365 10.4646 10.4644C15.7366 5.19232 24.2844 5.19232 29.5564 10.4644L47.6926 28.6006Z"/>
</mask>
<path d="M47.6926 28.6006L47.9821 29.0083L48.4647 28.6656L48.0462 28.247L47.6926 28.6006ZM37.3636 37.3635L37.0101 37.0099L37.0101 37.0099L37.3636 37.3635ZM28.6007 47.6925L28.2472 48.046L28.6657 48.4646L29.0084 47.982L28.6007 47.6925ZM10.4646 29.5563L10.111 29.9098L10.111 29.9098L10.4646 29.5563ZM10.4646 10.4644L10.111 10.1108L10.111 10.1108L10.4646 10.4644ZM29.5564 10.4644L29.91 10.1108L29.91 10.1108L29.5564 10.4644ZM47.6926 28.6006L47.4031 28.1929C43.8841 30.6917 40.3742 33.6458 37.0101 37.0099L37.3636 37.3635L37.7172 37.717C41.0428 34.3914 44.51 31.4738 47.9821 29.0083L47.6926 28.6006ZM37.3636 37.3635L37.0101 37.0099C33.646 40.374 30.6918 43.884 28.1931 47.403L28.6007 47.6925L29.0084 47.982C31.4739 44.5099 34.3916 41.0426 37.7172 37.717L37.3636 37.3635ZM28.6007 47.6925L28.9543 47.3389L10.8181 29.2027L10.4646 29.5563L10.111 29.9098L28.2472 48.046L28.6007 47.6925ZM10.4646 29.5563L10.8181 29.2027C5.74129 24.1259 5.74129 15.8948 10.8181 10.818L10.4646 10.4644L10.111 10.1108C4.64366 15.5782 4.64366 24.4425 10.111 29.9098L10.4646 29.5563ZM10.4646 10.4644L10.8181 10.818C15.8949 5.74114 24.1261 5.74114 29.2029 10.818L29.5564 10.4644L29.91 10.1108C24.4427 4.64351 15.5783 4.64351 10.111 10.1108L10.4646 10.4644ZM29.5564 10.4644L29.2029 10.818L47.3391 28.9541L47.6926 28.6006L48.0462 28.247L29.91 10.1108L29.5564 10.4644Z" fill="#E6D46D" mask="url(#path-3-inside-1_997_2)"/>
</svg>
